<?xml version="1.0" encoding="UTF-8"?>
<svg version="1.1" viewBox="0 0 2048 1462" width="591" height="422" xmlns="http://www.w3.org/2000/svg">
<path transform="translate(1423,502)" d="m0 0 10 1 6 4 3 8-1 8-3 5 6 9v12l-4 6-5 4-10 1-9-2 1 5v15l-2 3 12 5 7 3 5-1 11-9 15-12 11-9 9-9 3-8 3-27 1-3 16 1 2 1v2h2v-3h3l1 2 2 22 1 6 9 3 30 5 1 4-2 2v14l3 5v7l-4 1-14-3-25-5-10-1-17 14-9 7-10 10-6 12-1 9 12 20 2 6v13l-4 18 16 2 15 1 30 1-1 5v19l1 5h-40l-18 2-7 3-4 6-4 8-7 9-8 6-2 1v27l6 17 6 10 4 5 11 5 7 2 22 3 5 2 1 4-2 2-1 5v13l-1 1h-27l-7 3-4 3-2-1 4-5 4-3-8 4-1 6-1 13-5 19-6 10-5 4-5 2h-18l-5-3h-3l-3 3-22-1-1-85-1-13-6-2-3-3h-7l-4 1-17-2-9-1-9 7-7 8-6 7 13-4h15l13 4 6 4 5 5 3 5 1 5v64h-22l-2-3-4 1-7 3h-19l-9-3-5-8-2-7-2-13-8-12-4-4-3-1h-8l-10 1-2-2 10-2h13l9 10 5 8-1-7-6-8-5-5-3-1h-8l-17 3-11 4-4 4-2 22h27l22 1 1 1v18h-72l-1-2v-11l-2-4-6-3h-5l5-5 4-2 1-8-3 6-4 5-4 2 2-5 8-11 3-6v-30h-2l-5-9 1-3 5 9-1-12 2-2 2-27h21l1 1 1 32 1 17 6 1-5-5v-5l7 6 12-1 12-4 7-8 11-22 6-15v-3l-18-7-11-9-9-5-26-6-13-2 2-3h8l10 1-22-4v2h2l-1 3h-3l-2 5-7 11-5 6-11 7-10 3-7 1h-27l-13-2-12-6-6-5-6-9-6-21-2-19v-19l2-20 6-21 5-5 11-8 11-5 13-3h22l11 3 11 6 14 10 6 10 4 11 2 14 1 13v21l14-6 4-2-2-14-1-13 3-11 4-7-1-6-4-12-2-12-5-8-12-10-10-5-4-1h-11l-16 4-13 4h-2l1-3h3l-5-9-2-11-4-4 2-3 20-6 8-5 3-7v-12l-2-14v-12h7l2 1 15-2 3-3 4 2 6 36 4 12 10 13 8 8 7 4 7-1 16-5 8-7 9-7 12-6 15-1 8-4 10-7 4-2 3-17 2-43 5 1 15 1 1 1 1 35 2 12 1 3-1-47 1-7 2 1 1 37 3 21 4 8 5 2 8 1 1-63 3-7 5-5zm-2 10-4 5-1 4v22l2 5 4 2h8l5-4v-7l-2-4-6-2h-4l1-5 6-3 2-2v-7l-4-4zm-257 157-6 4-5 6-3 8-1 11v24l2 11 4 8 7 6 3 1h11l5-3 2-4 2-16 2-2 2-14v-11l-2-15-5-10-5-4zm83 21v5h1v-5zm1 6v7h1v-7zm-5 27-13 4-1 3 16-4 2-3zm9 24 4 1zm4 1m66 56-4 5-6 11 1 3 4-4 5-9 3-4v-2zm96 2-3 9-1 4 5-1 9-6-5-5zm5 29-6 4-2 4-1 10v11l2 12 3 5 3 2 7-1 5-8 2-8v-22l-4-7-3-2zm-87 1-9 6-8-1-7 1 2 9 22-1 15-1 1-1v-6l-5-5-2-1zm3 29-6 3-5 6v6l5 5 7 1 8-4 4-6v-9l-2-2z" fill="#6D5674"/>
<path transform="translate(1360,578)" d="m0 0h11l9 3 2 4-5 6-5 8-5 6-13 7v5h10l9-6 6-11 8-9 5-2h22l11 4 9 8 3 5 1 8-1 2h-14l-9-4h-7l2 6 11 8 10 13 6 2-2-10v-6l1-1 8 1 11 6 5 5 6 7 4 11v10l-4 11-7 10-4 5 1 6 6 13 1 7-4 10-8 10-7 6-8 3h-7l-9-4-6-4-5-9-3-8-4 1v8l4 10 4 6 8 5 13 5 1 5-6 10-8 8-6 4 3 5v24l1 7 4-1 6-3h25l4 4v2l5 2 7 4 2 3 3 1v2l1 1-1 2-3 1-6 7v16l-3 17-4 12-6 9-6 4-3 1h-18l-5-3h-3l-3 3-22-1-1-85-1-14 1-3 1-15 1-3-9 3-9 4-11 1-13-4-19-9-2-2v-5l8-5 15-1 3-3-1-3-13-2-10-5-9-7-2-3-7-1 2 7 7 8 2 2v5l-10 5h-10l-12-6-5-4-4-7-2-7v-14l10-7 8-7 7-9 7-11 8-6 12-5 7-2h12l3 2 3 23 2 3 5 1v-26l4-19 4-10 3-5v-4l-5 1-6 7-5 10-4 7-1 1-24 2-12 5-8 6-8 9-7 11-8 9-7 4h-11l-10-5-5-8-2-6v-9l3-7 7-7 2-3-1-10v-9l5-10 8-6 5-1 1 4-1 5v9l3 3h3l4-16 4-10 7-7 4-3v-5h-9l-2-1 1-6 4-6 8-8 9-4h9l7 1 15-9 9-5zm63 257-6 4-2 4-1 10v11l2 12 3 5 3 2 7-1 5-8 2-8v-22l-4-7-3-2z" fill="#F06996"/>
<path transform="translate(375,588)" d="m0 0 27 1 6 7 8 16 8 15 8 13 2 5 3-3 12-20 8-13 10-16 3-4 13-1 25 1 1 1v181l-1 7-1 1h-34l-3-2v-123l-4 4-16 26-7 11-6 4-6-1-8-9-7-12-6-14-5-8-2-1v86l-1 38-4 1h-34l-2-1v-189z" fill="#FEFEFE"/>
<path transform="translate(900,589)" d="m0 0h77l11 1 10 4 9 7 7 7 7 14 2 14v11l-2 9-7 12-9 9-4 2-1 2 5 2 11 11 5 8 4 11 1 5v14l-4 16-5 9-8 9-11 7-8 4-4 1-14 1h-71l-1-1zm39 31-1 1v44l19 1 12-1 8-4 7-7 2-6v-9l-4-9-4-5-6-3-6-1zm0 76-1 1v48l1 1h29l7-2 9-8 3-8v-15l-4-8-8-7-10-2z" fill="#FEFEFE"/>
<path transform="translate(760,589)" d="m0 0h39l1 60 11-8 10-4h18l10 3 10 6 8 11 4 10 1 4 1 28v78l-3 2h-33l-2-1-1-10v-57l-1-29-3-6-5-5-3-1h-12l-6 4-3 5-1 6-1 93-1 1h-36l-2-1z" fill="#FEFEFE"/>
<path transform="translate(577,637)" d="m0 0h22l12 3 15 8 11 8 5 8 3 8 1 9v96l-2 2h-33l-5-2-1-7-8 7-14 3h-24l-11-2-5-3-8-10-5-12-1-6v-15l3-12 4-6 11-11 12-5 9-2 38-1-1-16-4-6-7-3h-11l-7 4-6 9h-20l-17-2-1-3 4-15 7-10 8-7 13-6zm15 82-13 1-6 4-4 5-2 9 3 8 6 5 3 1h12l8-4 6-7 1-2 1-13-2-7z" fill="#FEFEFE"/>
<path transform="translate(1159,637)" d="m0 0h22l11 3 11 6 14 10 6 10 4 11 2 14 1 13v21l6-3 4 1v2l-10 3-1 2 5-1v2l6 2 2 4-1 1-13 1 1 3h-2v2h2l-1 3h-3l-2 5-7 11-5 6-11 7-10 3-7 1h-27l-13-2-12-6-6-5-6-9-6-21-2-19v-19l2-20 6-21 5-5 11-8 11-5zm5 32-6 4-5 6-3 8-1 11v24l2 11 4 8 7 6 3 1h11l5-3 2-4 2-16 2-2 2-14v-11l-2-15-5-10-5-4z" fill="#FDFDFD"/>
<path transform="translate(685,601)" d="m0 0h30l1 1 1 36 22 1 1 1v25l-1 1-8 1h-15l1 69 3 6 3 2 12 2 2 1v31l-1 1h-27l-15-2-9-6-5-8-3-10-1-86h-11l-3-2v-25l1-1 13-1 1-36z" fill="#FEFEFE"/>
<path transform="translate(1390,783)" d="m0 0h22l2 4v24l1 7 4-1 6-3h25l4 4v2l5 2 7 4 2 3 3 1v2l1 1-1 2-3 1-6 7v16l-3 17-4 12-6 9-6 4-3 1h-18l-5-3h-3l-3 3-22-1-1-85-1-14 1-3 1-15zm33 52-6 4-2 4-1 10v11l2 12 3 5 3 2 7-1 5-8 2-8v-22l-4-7-3-2z" fill="#FEFEFE"/>
<path transform="translate(1306,811)" d="m0 0 8 1-1 2 2 2-2 6 3-3 4-7 2 1-2 4h2l10-3h15l13 4 6 4 5 5 3 5 1 5v64h-22l-2-3-4 1-7 3h-19l-9-3-5-8-2-7-2-13-8-12-4-4-3-1h-8l-10 1-2-2 10-2h13l9 10 5 8v-6l1-3-1-7-3-5-2-1v-3l-14-2v-2l-3-1v-3l7-3 5-4 6-8 1-3 2-1zm30 25-9 6-8-1-7 1 2 9 22-1 15-1 1-1v-6l-5-5-2-1zm3 29-6 3-5 6v6l5 5 7 1 8-4 4-6v-9l-2-2z" fill="#FDFDFD"/>
<path transform="translate(1050,639)" d="m0 0h36l1 1v138l-3 1h-34l-1-2v-137z" fill="#FEFEFE"/>
<path transform="translate(1226,783)" d="m0 0h21l1 1 1 32 1 17 2 1v2l1 3 8 3 2 3-9 6-1 2 3 1-5 3-1 2-2 22h27l22 1 1 1v18h-72l-1-2v-11l-2-4-6-3h-5l5-5 4-2 1-8-3 6-4 5-4 2 2-5 8-11 3-6v-30h-2l-5-9 1-3 5 9-1-12 2-2z" fill="#FDFDFD"/>
<path transform="translate(1196,540)" d="m0 0h7l2 1 14-1 7 42 5 10 8 10 2 7-1 13-11-7-9-4-5-1h-13l-14 3-15 5-2-4-2-11-4-4 2-3 20-6 8-5 3-7v-12l-2-14z" fill="#F06996"/>
<path transform="translate(1505,512)" d="m0 0 5 1v2h2v-3h3l1 2 2 22 1 6 9 3 30 5 1 4-2 2-1 13-2 4-9-1-26-5h-12l-12 6-12 11-6 5h-3l-2-5v-12l13-11 8-9 3-10 3-27 1-1h5z" fill="#F06996"/>
<path transform="translate(1495,743)" d="m0 0 15 1 8 3-1 7-2 4-3 1-6-2-9-1-8 2 1 5 2 2 14 1 2 1v9l-2 2-19 1 1 5 2 2 5 1 13-1 7-3 4 1-1 12-3 3-11 2-16-1-10-3-5-4-2-3-1-7 4-7 6-3-6-12 1-9 7-6 6-2z" fill="#FEFEFE"/>
<path transform="translate(1423,502)" d="m0 0 10 1 6 4 3 8-1 8-3 5 6 9v12l-4 6-5 4-10 1-9-2 1 5v15l-10-1-2-1-1 2 1-61 3-7 5-5zm-2 10-4 5-1 4v22l2 5 4 2h8l5-4v-7l-2-4-6-2h-4l1-5 6-3 2-2v-7l-4-4z" fill="#FEFEFE"/>
<path transform="translate(1061,580)" d="m0 0h11l10 5 6 7 1 3v11l-5 9-6 5-6 3h-11l-6-4-6-8-2-4v-14l4-6 7-6z" fill="#FEFEFE"/>
<path transform="translate(1515,610)" d="m0 0h17l2 1v8l-1 1-8 1 5 13v8l-4 9-4 3-12 3-12-1-6-3-5-6-2-7v-10l4-10 5-5 6-3zm-10 10-4 4-2 5v10l3 8 6 2 6-3 2-4v-13l-3-7-2-2z" fill="#FEFEFE"/>
<path transform="translate(1278,505)" d="m0 0h34v8l-1 1h-22l9 13 7 8-1 7-9 17-5 8 1 1 20 1 1 1v10h-12l-22-1-1-1 1-9 11-23 3-5v-6l-8-10-5-8-2-7z" fill="#FEFEFE"/>
<path transform="translate(1466,691)" d="m0 0 20 2 14 1 33 1v15l-40 1-22 2-2-3-3-12z" fill="#F06A96"/>
<path transform="translate(1445,805)" d="m0 0 4 2 7 8 8 5 12 4 28 4v18l-1 1h-27l-7 3-4 3-2-1 4-5 4-3-10 5v-6l7-8 1-1v-2h2v-2l-4-1-1-3-4-1-8-5v-2l-3-1-1-2h-25l2-2h13z" fill="#F06A96"/>
<path transform="translate(1307,803)" d="m0 0h9l3 2-1 6-3 4-3-1 1-1-6-1-3 6h-2l-1 4-8 10-7 4h-3l1 3 5 2 7 1 4 2v3l3 1 3 5 1 8-2 2-7-9-5-5-3-1h-8l-17 3-7 2h-5l2-4 7-4-2-3-8-3-2-5h5l4 2h14l10-3 8-6 9-14 6-9z" fill="#F06C98"/>
<path transform="translate(1364,513)" d="m0 0h12l1 1 1 35 1 10-1 2v10l-11-2-5-1z" fill="#F06F9A"/>
<path transform="translate(1410,656)" d="m0 0h8l7 3 4 5 1 2v11l-3 6-6 4h-10l-6-5-4-8 1-9 3-5z" fill="#6C5674"/>
<path transform="translate(1196,540)" d="m0 0h7l1 1 3 22v19l-3 5-8 7-12 6-11 4-4-1-4-4 2-3 20-6 8-5 3-7v-12l-2-14z" fill="#6E5674"/>
<path transform="translate(1254,721)" d="m0 0 8 2 6 3 1 2v18l-9-1-16-2-3-1v2l-10-1-3-2v-2l13-2-2-4-6-1 2-4 14-4z" fill="#EF6A97"/>
<path transform="translate(1512,512)" d="m0 0h3l1 2 2 22 1 6 9 3 30 5 1 4-3 4-12-1-21-5-8-4-4-4-2-10v-21l1 2h2z" fill="#6C5674"/>
<path transform="translate(1321,710)" d="m0 0 10 1 3 3v8l-8 7-6-1-6-5v-6l5-6z" fill="#6C5674"/>
<path transform="translate(1472,840)" d="m0 0h31l1 6-1 1h-27l-7 3-4 3-2-1 4-5 4-3-5 2h-3l1-3z" fill="#7A5B7A"/>
<path transform="translate(1335,634)" d="m0 0 4 1 3 5-1 4-7 1-3-2v-6z" fill="#6C5674"/>
<path transform="translate(1486,564)" d="m0 0h3v4h-2v2h-2l-1 5-7 2h-4l1-4 8-6z" fill="#FDFCFC"/>
<path transform="translate(1381,510)" d="m0 0 2 1 1 43-3-2-1-35z" fill="#FEFEFE"/>
<path transform="translate(1368,718)" d="m0 0h4l2 3v6l-2 2h-6l-1-1v-6z" fill="#6C5674"/>
<path transform="translate(1231,745)" d="m0 0h8l13 2 1 3-6 1-18-3z" fill="#B68FA7"/>
<path transform="translate(1221,872)" d="m0 0h2l-2 9h-9l5-5 4-2z" fill="#DF89A9"/>
<path transform="translate(1219,866)" d="m0 0h1v5l-5 6-4 2 2-5z" fill="#9C7B95"/>
<path transform="translate(1259,856)" d="m0 0 3 1-3 2-5 4-3 5-1-2 4-7z" fill="#FEFEFE"/>
<path transform="translate(1432,858)" d="m0 0h1l-1 12h-1v-7z" fill="#FEFEFE"/>
<path transform="translate(1316,844)" d="m0 0 4 1-1 2h-3z" fill="#FEFEFE"/>
<path transform="translate(1184,718)" d="m0 0h1v5l-2-1z" fill="#FEFEFE"/>
<path transform="translate(1215,811)" d="m0 0 2 1-1 2z" fill="#FEFEFE"/>
<path transform="translate(1262,856)" d="m0 0 3 1z" fill="#FEFEFE"/>
<path transform="translate(1266,855)" d="m0 0 3 1z" fill="#FEFEFE"/>
<path transform="translate(1210,879)" d="m0 0" fill="#FEFEFE"/>
<path transform="translate(1430,871)" d="m0 0" fill="#FEFEFE"/>
<path transform="translate(1250,822)" d="m0 0" fill="#FEFEFE"/>
</svg>
