<?xml version="1.0" encoding="UTF-8"?>
<svg version="1.1" xmlns="http://www.w3.org/2000/svg" width="500" height="500">
<path d="M0 0 C165 0 330 0 500 0 C500 165 500 330 500 500 C335 500 170 500 0 500 C0 335 0 170 0 0 Z " fill="#FEFEFE" transform="translate(0,0)"/>
<path d="M0 0 C-0.33 0.66 -0.66 1.32 -1 2 C-2.155 2.2475 -3.31 2.495 -4.5 2.75 C-10.32978339 4.10259363 -15.68352076 7.05348932 -19.421875 11.80859375 C-22.53984824 17.06170083 -23.16781002 21.54208397 -23.25 27.5625 C-23.27578125 28.69816406 -23.3015625 29.83382812 -23.328125 31.00390625 C-23.2528454 33.96863949 -23.2528454 33.96863949 -21.671875 35.83984375 C-19.88875272 37.19322063 -19.88875272 37.19322063 -17 38 C-17 36.68 -17 35.36 -17 34 C-17.845625 33.21625 -18.69125 32.4325 -19.5625 31.625 C-22 29 -22 29 -22.125 25.8125 C-21 23 -21 23 -18.4375 21.625 C-17.633125 21.41875 -16.82875 21.2125 -16 21 C-16.10699219 20.38511719 -16.21398437 19.77023438 -16.32421875 19.13671875 C-16.44410156 18.32847656 -16.56398438 17.52023438 -16.6875 16.6875 C-16.81511719 15.88699219 -16.94273437 15.08648437 -17.07421875 14.26171875 C-17 12 -17 12 -15.8125 10.1875 C-13.3996339 8.60665669 -12.12678823 8.86384535 -9.3125 9.3125 C-8.50425781 9.43238281 -7.69601562 9.55226562 -6.86328125 9.67578125 C-6.24839844 9.78277344 -5.63351562 9.88976562 -5 10 C-4.87625 9.38125 -4.7525 8.7625 -4.625 8.125 C-4 6 -4 6 -2 4 C0.875 3.5625 0.875 3.5625 4 4 C4.928125 5.2375 4.928125 5.2375 5.875 6.5 C7.66539331 9.18110471 7.66539331 9.18110471 9.91796875 9.2265625 C10.62566406 9.19304687 11.33335937 9.15953125 12.0625 9.125 C16 9 16 9 17.734375 10.19921875 C19.36204025 12.51512517 19.30931888 13.88566585 19.1875 16.6875 C19.14689453 17.89986328 19.14689453 17.89986328 19.10546875 19.13671875 C19.07066406 19.75160156 19.03585937 20.36648437 19 21 C19.639375 21.309375 20.27875 21.61875 20.9375 21.9375 C23 23 23 23 24 24 C24.26293056 28.03160191 24.29404844 29.55892734 22 33 C21.01 33 20.02 33 19 33 C19.02320313 33.69867188 19.04640625 34.39734375 19.0703125 35.1171875 C19.08835937 36.02726562 19.10640625 36.93734375 19.125 37.875 C19.14820313 38.77992188 19.17140625 39.68484375 19.1953125 40.6171875 C19 43 19 43 17 45 C14.8359375 45.1953125 14.8359375 45.1953125 12.375 45.125 C11.55773437 45.10695312 10.74046875 45.08890625 9.8984375 45.0703125 C9.27195312 45.04710937 8.64546875 45.02390625 8 45 C7.71125 45.639375 7.4225 46.27875 7.125 46.9375 C6 49 6 49 4 50 C1.125 50.375 1.125 50.375 -2 50 C-4.25 47.5 -4.25 47.5 -6 45 C-6.66 45 -7.32 45 -8 45 C-8 47.31 -8 49.62 -8 52 C2.28622074 52.53357917 10.82832479 52.40142571 18.9375 45.5 C19.618125 44.675 20.29875 43.85 21 43 C21.50273437 42.39671875 22.00546875 41.7934375 22.5234375 41.171875 C24.18023542 38.73489181 24.90465102 36.58316774 25.6875 33.75 C25.93886719 32.85796875 26.19023437 31.9659375 26.44921875 31.046875 C26.63097656 30.37140625 26.81273437 29.6959375 27 29 C27.33 29 27.66 29 28 29 C28.31563182 34.26053037 27.66590937 37.44573816 25 42 C26.32 42.66 27.64 43.32 29 44 C29.125 47.375 29.125 47.375 29 51 C27 53 27 53 23.625 53.25 C20 53 20 53 18 51.8125 C15.75137144 50.63746075 15.75137144 50.63746075 12.4375 52.3125 C11.303125 52.869375 10.16875 53.42625 9 54 C6.0668642 54.97771193 4.11821006 55.13419011 1.0625 55.125 C-0.21947266 55.12886719 -0.21947266 55.12886719 -1.52734375 55.1328125 C-3.82680852 55.00930254 -5.79640348 54.64420687 -8 54 C-8.2475 54.7425 -8.495 55.485 -8.75 56.25 C-10.38681652 59.85099634 -12.44408692 62.22204346 -16 64 C-21.08942479 64.49992739 -25.51742937 64.81692667 -30.0625 62.3125 C-33.99515097 57.61869078 -34.43540822 53.37279229 -34.328125 47.3828125 C-33.86202882 43.9980664 -32.52994237 42.23230209 -30 40 C-29.34 40 -28.68 40 -28 40 C-27.03656614 35.89561511 -26.83898293 31.95689738 -26.6875 27.75 C-26.16527167 18.4357978 -23.86934484 11.89117154 -16.921875 5.5078125 C-11.48752796 1.24428007 -6.89750419 -0.57479202 0 0 Z " fill="#EA5E69" transform="translate(366,170)"/>
<path d="M0 0 C-0.33 0.66 -0.66 1.32 -1 2 C-2.155 2.2475 -3.31 2.495 -4.5 2.75 C-10.32978339 4.10259363 -15.68352076 7.05348932 -19.421875 11.80859375 C-22.53984824 17.06170083 -23.16781002 21.54208397 -23.25 27.5625 C-23.27578125 28.69816406 -23.3015625 29.83382812 -23.328125 31.00390625 C-23.2528454 33.96863949 -23.2528454 33.96863949 -21.671875 35.83984375 C-19.88875272 37.19322063 -19.88875272 37.19322063 -17 38 C-17 36.68 -17 35.36 -17 34 C-17.845625 33.21625 -18.69125 32.4325 -19.5625 31.625 C-22 29 -22 29 -22.125 25.8125 C-21 23 -21 23 -18.4375 21.625 C-17.633125 21.41875 -16.82875 21.2125 -16 21 C-16.10699219 20.38511719 -16.21398437 19.77023438 -16.32421875 19.13671875 C-16.44410156 18.32847656 -16.56398438 17.52023438 -16.6875 16.6875 C-16.81511719 15.88699219 -16.94273437 15.08648437 -17.07421875 14.26171875 C-17 12 -17 12 -15.8125 10.1875 C-13.3996339 8.60665669 -12.12678823 8.86384535 -9.3125 9.3125 C-8.50425781 9.43238281 -7.69601562 9.55226562 -6.86328125 9.67578125 C-6.24839844 9.78277344 -5.63351562 9.88976562 -5 10 C-4.87625 9.38125 -4.7525 8.7625 -4.625 8.125 C-4 6 -4 6 -2 4 C0.875 3.5625 0.875 3.5625 4 4 C4.928125 5.2375 4.928125 5.2375 5.875 6.5 C7.66539331 9.18110471 7.66539331 9.18110471 9.91796875 9.2265625 C10.62566406 9.19304687 11.33335937 9.15953125 12.0625 9.125 C16 9 16 9 17.734375 10.19921875 C19.36204025 12.51512517 19.30931888 13.88566585 19.1875 16.6875 C19.14689453 17.89986328 19.14689453 17.89986328 19.10546875 19.13671875 C19.07066406 19.75160156 19.03585937 20.36648437 19 21 C19.639375 21.309375 20.27875 21.61875 20.9375 21.9375 C23 23 23 23 24 24 C24.26293056 28.03160191 24.29404844 29.55892734 22 33 C21.01 33 20.02 33 19 33 C19.02320313 33.69867188 19.04640625 34.39734375 19.0703125 35.1171875 C19.08835937 36.02726562 19.10640625 36.93734375 19.125 37.875 C19.14820313 38.77992188 19.17140625 39.68484375 19.1953125 40.6171875 C19 43 19 43 17 45 C14.8359375 45.1953125 14.8359375 45.1953125 12.375 45.125 C11.55773437 45.10695312 10.74046875 45.08890625 9.8984375 45.0703125 C9.27195312 45.04710937 8.64546875 45.02390625 8 45 C7.71125 45.639375 7.4225 46.27875 7.125 46.9375 C6 49 6 49 4 50 C1.125 50.375 1.125 50.375 -2 50 C-4.25 47.5 -4.25 47.5 -6 45 C-6.66 45 -7.32 45 -8 45 C-8 47.31 -8 49.62 -8 52 C2.28622074 52.53357917 10.82832479 52.40142571 18.9375 45.5 C19.618125 44.675 20.29875 43.85 21 43 C21.50273437 42.39671875 22.00546875 41.7934375 22.5234375 41.171875 C24.18023542 38.73489181 24.90465102 36.58316774 25.6875 33.75 C25.93886719 32.85796875 26.19023437 31.9659375 26.44921875 31.046875 C26.63097656 30.37140625 26.81273437 29.6959375 27 29 C27.33 29 27.66 29 28 29 C28.31563182 34.26053037 27.66590937 37.44573816 25 42 C26.32 42.66 27.64 43.32 29 44 C29.125 47.375 29.125 47.375 29 51 C27 53 27 53 23.625 53.25 C20 53 20 53 18 51.8125 C15.75137144 50.63746075 15.75137144 50.63746075 12.4375 52.3125 C11.303125 52.869375 10.16875 53.42625 9 54 C6.0668642 54.97771193 4.11821006 55.13419011 1.0625 55.125 C-0.21947266 55.12886719 -0.21947266 55.12886719 -1.52734375 55.1328125 C-3.82680852 55.00930254 -5.79640348 54.64420687 -8 54 C-8.2475 54.7425 -8.495 55.485 -8.75 56.25 C-10.38681652 59.85099634 -12.44408692 62.22204346 -16 64 C-21.08942479 64.49992739 -25.51742937 64.81692667 -30.0625 62.3125 C-33.99515097 57.61869078 -34.43540822 53.37279229 -34.328125 47.3828125 C-33.86202882 43.9980664 -32.52994237 42.23230209 -30 40 C-29.34 40 -28.68 40 -28 40 C-27.03656614 35.89561511 -26.83898293 31.95689738 -26.6875 27.75 C-26.16527167 18.4357978 -23.86934484 11.89117154 -16.921875 5.5078125 C-11.48752796 1.24428007 -6.89750419 -0.57479202 0 0 Z M-1 6 C-1.598125 6.825 -2.19625 7.65 -2.8125 8.5 C-5 11 -5 11 -6.95703125 11.26171875 C-8.97206199 11.19273572 -10.98614496 11.0974446 -13 11 C-13.66 11.66 -14.32 12.32 -15 13 C-14.938125 14.27875 -14.87625 15.5575 -14.8125 16.875 C-14.73828125 19.04296875 -14.73828125 19.04296875 -15 21 C-17.5 23.1875 -17.5 23.1875 -20 25 C-20.83356413 27.54412036 -20.83356413 27.54412036 -20 30 C-19.175 30.474375 -18.35 30.94875 -17.5 31.4375 C-16.675 31.953125 -15.85 32.46875 -15 33 C-14.6875 36.1875 -14.6875 36.1875 -15 39 C-13.68 39.66 -12.36 40.32 -11 41 C-11 41.66 -11 42.32 -11 43 C-9.88625 43.0825 -8.7725 43.165 -7.625 43.25 C-4 44 -4 44 -2.5625 46.0625 C-2.376875 46.701875 -2.19125 47.34125 -2 48 C0.87413125 48.33397787 0.87413125 48.33397787 4 48 C4.433125 47.360625 4.86625 46.72125 5.3125 46.0625 C7 44 7 44 9.109375 43.58203125 C10.71761624 43.44630388 12.32891669 43.34227942 13.94140625 43.2734375 C16.22256182 43.18266818 16.22256182 43.18266818 18 41 C17.93530878 38.96222643 17.87053895 36.92445515 17.8046875 34.88671875 C18 33 18 33 20 31.375 C20.66 30.92125 21.32 30.4675 22 30 C22.33397787 26.87413125 22.33397787 26.87413125 22 24 C20.68 23.34 19.36 22.68 18 22 C18.06510417 20.01432292 18.13020833 18.02864583 18.1953125 16.04296875 C18.13254462 13.68640281 18.13254462 13.68640281 16 11 C13.56306689 10.63583953 13.56306689 10.63583953 10.875 10.8125 C9.96492188 10.83957031 9.05484375 10.86664063 8.1171875 10.89453125 C7.41851562 10.92933594 6.71984375 10.96414062 6 11 C5.855625 10.360625 5.71125 9.72125 5.5625 9.0625 C5.18992819 7.02454854 5.18992819 7.02454854 4 6 C1.62778044 5.49864801 1.62778044 5.49864801 -1 6 Z " fill="#0C0B0B" transform="translate(366,170)"/>
<path d="M0 0 C3.3 0 6.6 0 10 0 C12.97 8.25 15.94 16.5 19 25 C21.91986677 17.14771843 21.91986677 17.14771843 24.83374023 9.29321289 C25.19669189 8.3211792 25.55964355 7.34914551 25.93359375 6.34765625 C26.30540771 5.34742432 26.67722168 4.34719238 27.06030273 3.31665039 C28 1 28 1 29 0 C31.97 0 34.94 0 38 0 C38 12.21 38 24.42 38 37 C35.69 37 33.38 37 31 37 C30.505 25.615 30.505 25.615 30 14 C27.69 20.6 25.38 27.2 23 34 C20.69 34 18.38 34 16 34 C14.85297813 31.06296271 13.7075888 28.12529143 12.5625 25.1875 C12.23701172 24.35412109 11.91152344 23.52074219 11.57617188 22.66210938 C11.26357422 21.85966797 10.95097656 21.05722656 10.62890625 20.23046875 C10.34088135 19.49207764 10.05285645 18.75368652 9.75610352 17.99291992 C9.13028355 16.34339833 8.5579043 14.67371291 8 13 C7.67 20.92 7.34 28.84 7 37 C4.69 37 2.38 37 0 37 C0 24.79 0 12.58 0 0 Z " fill="#141414" transform="translate(163,197)"/>
<path d="M0 0 C17 0 17 0 23 4 C24.57027317 5.57027317 24.16974386 7.14269947 24.1875 9.3125 C24.20167969 10.09238281 24.21585937 10.87226563 24.23046875 11.67578125 C23.97984413 14.2032668 23.26373772 15.81718031 22 18 C22.66 18.680625 23.32 19.36125 24 20.0625 C26.5324171 23.78198762 26.69849726 25.576184 26 30 C24.57317839 32.52090617 23.15177561 33.94603237 21 36 C14.20130732 37.69967317 7.00793201 37 0 37 C0 24.79 0 12.58 0 0 Z " fill="#080808" transform="translate(288,197)"/>
<path d="M0 0 C5.36842105 -0.35789474 5.36842105 -0.35789474 7.875 1.0625 C9 3 9 3 8.8125 6.25 C9.0455389 10.91077807 10.41796714 11.99997057 13.46484375 15.27734375 C19.36567917 21.8988919 18.31364648 29.62447737 18 38 C17.34 37.34 16.68 36.68 16 36 C15.4121875 37.7634375 15.4121875 37.7634375 14.8125 39.5625 C11.90592252 47.14371131 8.41735464 51.26855962 1.18359375 55.0546875 C-5.37360937 57.89340513 -12.12144644 57.37571071 -19 56 C-19.33 53.69 -19.66 51.38 -20 49 C-18.68 49 -17.36 49 -16 49 C-15.5875 49.66 -15.175 50.32 -14.75 51 C-13.22132522 53.18935269 -13.22132522 53.18935269 -11.03515625 53.265625 C-9.02153971 53.25146952 -7.00935091 53.13176072 -5 53 C-4.34 51.35 -3.68 49.7 -3 48 C-2.36191406 48.01160156 -1.72382813 48.02320313 -1.06640625 48.03515625 C-0.24011719 48.04417969 0.58617187 48.05320313 1.4375 48.0625 C2.67306641 48.07990234 2.67306641 48.07990234 3.93359375 48.09765625 C5.99163938 48.23267348 5.99163938 48.23267348 7 47 C7.23287008 45.31816052 7.41264166 43.6287584 7.5625 41.9375 C7.64628906 41.01839844 7.73007812 40.09929687 7.81640625 39.15234375 C7.90728516 38.08693359 7.90728516 38.08693359 8 37 C8.99 36.67 9.98 36.34 11 36 C12.41441874 33.17116253 12.31900332 31.12623255 12 28 C11.34902344 27.55914062 10.69804687 27.11828125 10.02734375 26.6640625 C8 25 8 25 7.390625 22.30078125 C7.34421875 21.31464844 7.2978125 20.32851562 7.25 19.3125 C7.19328125 18.31863281 7.1365625 17.32476562 7.078125 16.30078125 C7.05234375 15.54152344 7.0265625 14.78226563 7 14 C5.98679687 14.08701172 5.98679687 14.08701172 4.953125 14.17578125 C2.22614357 14.31370661 -0.29150621 14.36427527 -3 14 C-5.25 11.5 -5.25 11.5 -7 9 C-10.04340127 8.16650049 -10.04340127 8.16650049 -13 9 C-13.433125 9.825 -13.86625 10.65 -14.3125 11.5 C-14.869375 12.325 -15.42625 13.15 -16 14 C-18.38168275 14.29550508 -20.55276509 14.18834721 -22.94140625 13.98046875 C-25.22876479 13.76185381 -25.22876479 13.76185381 -27 16 C-27.24253813 18.21072977 -27.24253813 18.21072977 -27.125 20.625 C-27.10695313 21.44226563 -27.08890625 22.25953125 -27.0703125 23.1015625 C-27.04710937 23.72804687 -27.02390625 24.35453125 -27 25 C-27.63808594 25.27199219 -28.27617187 25.54398438 -28.93359375 25.82421875 C-31.29548304 26.87712837 -31.29548304 26.87712837 -32.0625 29.8125 C-32.35460561 33.21927834 -32.35460561 33.21927834 -29.5 35.625 C-28.675 36.40875 -27.85 37.1925 -27 38 C-27.1875 40.3125 -27.1875 40.3125 -28 42 C-31.28594623 41.43345755 -32.98012539 40.68557977 -35 38 C-36.2704057 28.89542581 -34.95624328 21.43436492 -29.875 13.8125 C-25.05916659 8.48897331 -17.93064125 5.36137596 -11 4 C-7.99078339 3.85992411 -5.00935026 3.87716938 -2 4 C-1.34 2.68 -0.68 1.36 0 0 Z " fill="#E8A79E" transform="translate(377,166)"/>
<path d="M0 0 C0.82242188 -0.0309375 1.64484375 -0.061875 2.4921875 -0.09375 C6.30898742 0.767012 8.96436803 2.25771336 11.125 5.5 C11.85059155 9.13392358 11.69313572 12.6255886 11.5 16.3125 C11.47292969 17.29154297 11.44585937 18.27058594 11.41796875 19.27929688 C11.34745648 21.68846621 11.24898568 24.09308819 11.125 26.5 C9.475 26.5 7.825 26.5 6.125 26.5 C5.795 25.84 5.465 25.18 5.125 24.5 C4.135 25.16 3.145 25.82 2.125 26.5 C-2.63974651 27.3476609 -5.92574203 27.15866879 -9.9375 24.375 C-12.21904561 20.98948071 -12.6402998 19.49656562 -11.875 15.5 C-10.26171875 13.33203125 -10.26171875 13.33203125 -7.875 11.5 C-4.640625 11.109375 -4.640625 11.109375 -1.125 11.25 C0.04546875 11.28609375 1.2159375 11.3221875 2.421875 11.359375 C3.31390625 11.40578125 4.2059375 11.4521875 5.125 11.5 C4.465 9.85 3.805 8.2 3.125 6.5 C0.20847826 6.33318891 0.20847826 6.33318891 -2.875 6.5 C-3.535 7.16 -4.195 7.82 -4.875 8.5 C-7 8.125 -7 8.125 -8.875 7.5 C-8.875 3.5 -8.875 3.5 -7.1796875 1.78125 C-4.57666207 0.33414434 -2.96357683 0.03692931 0 0 Z " fill="#080808" transform="translate(218.875,207.5)"/>
<path d="M0 0 C1.98 0 3.96 0 6 0 C6.33 4.29 6.66 8.58 7 13 C7.66 12.34 8.32 11.68 9 11 C10.98828125 10.62890625 10.98828125 10.62890625 13.3125 10.5625 C14.07175781 10.52253906 14.83101563 10.48257813 15.61328125 10.44140625 C19.44008729 11.33704171 20.73678453 12.79973392 23 16 C23.60086767 19.62641313 23.47239775 23.14961163 23.3125 26.8125 C23.28994141 27.79154297 23.26738281 28.77058594 23.24414062 29.77929688 C23.18539727 32.18777455 23.10332129 34.59309078 23 37 C21.02 37 19.04 37 17 37 C16.505 27.1 16.505 27.1 16 17 C10.45667133 16.43891427 10.45667133 16.43891427 8.15698242 18.24926758 C6.79013558 20.31756441 6.58096811 21.54624837 6.48828125 24.01171875 C6.45283203 24.76904297 6.41738281 25.52636719 6.38085938 26.30664062 C6.35830078 27.09232422 6.33574219 27.87800781 6.3125 28.6875 C6.27833984 29.48478516 6.24417969 30.28207031 6.20898438 31.10351562 C6.12661896 33.06851904 6.06162933 35.03423696 6 37 C4.02 37 2.04 37 0 37 C0 24.79 0 12.58 0 0 Z " fill="#040404" transform="translate(257,197)"/>
<path d="M0 0 C0.268125 0.66 0.53625 1.32 0.8125 2 C1.4003125 2.99 1.4003125 2.99 2 4 C4.90073181 4.67801034 4.90073181 4.67801034 8 5 C11.85710476 6.36133109 13.93337262 8.47907928 16 12 C16.03677157 14.83141109 15.57011307 17.19694407 15 20 C13.68 19.67 12.36 19.34 11 19 C10.505 13.555 10.505 13.555 10 8 C7.64875 8.1546875 7.64875 8.1546875 5.25 8.3125 C2.46875 8.33203125 2.46875 8.33203125 0 8 C-2.25 5.5 -2.25 5.5 -4 3 C-7.04340127 2.16650049 -7.04340127 2.16650049 -10 3 C-10.433125 3.825 -10.86625 4.65 -11.3125 5.5 C-11.869375 6.325 -12.42625 7.15 -13 8 C-15.38168275 8.29550508 -17.55276509 8.18834721 -19.94140625 7.98046875 C-22.22876479 7.76185381 -22.22876479 7.76185381 -24 10 C-24.24253813 12.21072977 -24.24253813 12.21072977 -24.125 14.625 C-24.10695313 15.44226563 -24.08890625 16.25953125 -24.0703125 17.1015625 C-24.04710937 17.72804687 -24.02390625 18.35453125 -24 19 C-24.63808594 19.27199219 -25.27617187 19.54398438 -25.93359375 19.82421875 C-28.29548304 20.87712837 -28.29548304 20.87712837 -29.0625 23.8125 C-29.35460561 27.21927834 -29.35460561 27.21927834 -26.5 29.625 C-25.675 30.40875 -24.85 31.1925 -24 32 C-24.1875 34.3125 -24.1875 34.3125 -25 36 C-28.28594623 35.43345755 -29.98012539 34.68557977 -32 32 C-33.2704057 22.89542581 -31.95624328 15.43436492 -26.875 7.8125 C-19.8684182 0.06727253 -9.79858544 -3.26619515 0 0 Z " fill="#EDB5AD" transform="translate(374,172)"/>
<path d="M0 0 C0 3.3 0 6.6 0 10 C2.31 10 4.62 10 7 10 C7 11.65 7 13.3 7 15 C4.69 15 2.38 15 0 15 C0.33 19.62 0.66 24.24 1 29 C3.98031281 29.69882131 3.98031281 29.69882131 7 30 C7 31.98 7 33.96 7 36 C5.5629191 36.05422947 4.12524538 36.09289723 2.6875 36.125 C1.88699219 36.14820313 1.08648437 36.17140625 0.26171875 36.1953125 C-2 36 -2 36 -5 34 C-6.25433458 30.23699626 -6.10695422 26.72789091 -6.0625 22.8125 C-6.05798828 22.06291016 -6.05347656 21.31332031 -6.04882812 20.54101562 C-6.03706354 18.69397617 -6.01912865 16.84697787 -6 15 C-7.32 15 -8.64 15 -10 15 C-10 13.35 -10 11.7 -10 10 C-8.68 10 -7.36 10 -6 10 C-6.0825 8.906875 -6.165 7.81375 -6.25 6.6875 C-6 3 -6 3 -4.125 1.0625 C-2 0 -2 0 0 0 Z " fill="#070707" transform="translate(244,198)"/>
<path d="M0 0 C1.03125 0.144375 2.0625 0.28875 3.125 0.4375 C3.74375 1.2625 4.3625 2.0875 5 2.9375 C6.79039331 5.61860471 6.79039331 5.61860471 9.04296875 5.6640625 C10.10451172 5.61378906 10.10451172 5.61378906 11.1875 5.5625 C15.125 5.4375 15.125 5.4375 16.859375 6.63671875 C18.48704025 8.95262517 18.43431888 10.32316585 18.3125 13.125 C18.27189453 14.33736328 18.27189453 14.33736328 18.23046875 15.57421875 C18.19566406 16.18910156 18.16085937 16.80398437 18.125 17.4375 C18.764375 17.746875 19.40375 18.05625 20.0625 18.375 C22.125 19.4375 22.125 19.4375 23.125 20.4375 C23.38793056 24.46910191 23.41904844 25.99642734 21.125 29.4375 C20.135 29.4375 19.145 29.4375 18.125 29.4375 C18.14820313 30.13617188 18.17140625 30.83484375 18.1953125 31.5546875 C18.21335937 32.46476562 18.23140625 33.37484375 18.25 34.3125 C18.27320313 35.21742188 18.29640625 36.12234375 18.3203125 37.0546875 C18.125 39.4375 18.125 39.4375 16.125 41.4375 C13.9609375 41.6328125 13.9609375 41.6328125 11.5 41.5625 C10.68273437 41.54445312 9.86546875 41.52640625 9.0234375 41.5078125 C8.39695312 41.48460937 7.77046875 41.46140625 7.125 41.4375 C6.83625 42.076875 6.5475 42.71625 6.25 43.375 C5.125 45.4375 5.125 45.4375 3.125 46.4375 C0.1875 46.8125 0.1875 46.8125 -2.875 46.4375 C-4.75 43.9375 -4.75 43.9375 -5.875 41.4375 C-4.885 40.9425 -4.885 40.9425 -3.875 40.4375 C-3.545 41.7575 -3.215 43.0775 -2.875 44.4375 C0.02302603 44.24696422 0.02302603 44.24696422 3.125 43.4375 C3.558125 42.7775 3.99125 42.1175 4.4375 41.4375 C6.56943679 38.9107601 7.59557572 39.02823341 10.8125 38.6875 C12.24888098 38.58670133 13.6863506 38.49782073 15.125 38.4375 C15.79153166 36.04103883 16.12134332 34.38752536 15.9375 31.875 C16.0303125 30.6684375 16.0303125 30.6684375 16.125 29.4375 C16.785 28.963125 17.445 28.48875 18.125 28 C18.785 27.484375 19.445 26.96875 20.125 26.4375 C20.45897787 23.31163125 20.45897787 23.31163125 20.125 20.4375 C18.805 19.7775 17.485 19.1175 16.125 18.4375 C16.15755208 16.41927083 16.19010417 14.40104167 16.22265625 12.3828125 C16.25149242 10.35564596 16.25149242 10.35564596 15.125 8.4375 C13.206875 8.4684375 13.206875 8.4684375 11.25 8.5 C7.375 8.5625 7.375 8.5625 5.125 7.4375 C4 5.375 4 5.375 3.125 3.4375 C0.79428121 3.01879447 0.79428121 3.01879447 -1.875 3.4375 C-2.473125 4.2625 -3.07125 5.0875 -3.6875 5.9375 C-5.875 8.4375 -5.875 8.4375 -7.90234375 8.76953125 C-9.89622619 8.75201031 -11.8879282 8.60308932 -13.875 8.4375 C-14.019375 9.159375 -14.16375 9.88125 -14.3125 10.625 C-14.498125 11.553125 -14.68375 12.48125 -14.875 13.4375 C-14.978125 14.30375 -15.08125 15.17 -15.1875 16.0625 C-15.875 18.4375 -15.875 18.4375 -17.9375 19.9375 C-20.12306027 21.30052832 -20.12306027 21.30052832 -20.4375 23.9375 C-20.107799 26.68891428 -20.107799 26.68891428 -17.375 28.25 C-16.55 28.641875 -15.725 29.03375 -14.875 29.4375 C-15.205 31.4175 -15.535 33.3975 -15.875 35.4375 C-16.535 35.4375 -17.195 35.4375 -17.875 35.4375 C-17.771875 34.715625 -17.66875 33.99375 -17.5625 33.25 C-17.59836605 30.17672249 -17.59836605 30.17672249 -20.4375 28 C-22.875 25.4375 -22.875 25.4375 -23 22.25 C-21.875 19.4375 -21.875 19.4375 -19.3125 18.0625 C-18.508125 17.85625 -17.70375 17.65 -16.875 17.4375 C-16.98199219 16.82261719 -17.08898437 16.20773438 -17.19921875 15.57421875 C-17.31910156 14.76597656 -17.43898438 13.95773438 -17.5625 13.125 C-17.69011719 12.32449219 -17.81773437 11.52398437 -17.94921875 10.69921875 C-17.875 8.4375 -17.875 8.4375 -16.6875 6.625 C-14.2746339 5.04415669 -13.00178823 5.30134535 -10.1875 5.75 C-9.37925781 5.86988281 -8.57101562 5.98976562 -7.73828125 6.11328125 C-7.12339844 6.22027344 -6.50851562 6.32726562 -5.875 6.4375 C-5.75125 5.81875 -5.6275 5.2 -5.5 4.5625 C-4.50845063 1.19123213 -3.44269542 0.52388843 0 0 Z " fill="#311A1A" transform="translate(366.875,173.5625)"/>
<path d="M0 0 C1.32 0 2.64 0 4 0 C4.33 1.98 4.66 3.96 5 6 C5.928125 5.938125 6.85625 5.87625 7.8125 5.8125 C11 6 11 6 12.67578125 7.23046875 C14.34351944 9.45903925 14.40261081 10.73891873 14.375 13.5 C14.38273437 14.2734375 14.39046875 15.046875 14.3984375 15.84375 C14 18 14 18 12.83203125 19.76953125 C9.12966933 22.25619224 4.27207136 21.15077899 0 21 C0 14.07 0 7.14 0 0 Z " fill="#0F0F0F" transform="translate(388,231)"/>
<path d="M0 0 C2.31 0 4.62 0 7 0 C7 8.58 7 17.16 7 26 C4.69 26 2.38 26 0 26 C0 17.42 0 8.84 0 0 Z " fill="#1C1C1C" transform="translate(320,208)"/>
<path d="M0 0 C0.33 0 0.66 0 1 0 C1.31563182 5.26053037 0.66590937 8.44573816 -2 13 C-0.68 13.66 0.64 14.32 2 15 C2.125 18.375 2.125 18.375 2 22 C0 24 0 24 -3.375 24.25 C-7 24 -7 24 -9 22.8125 C-11.24862856 21.63746075 -11.24862856 21.63746075 -14.5625 23.3125 C-15.696875 23.869375 -16.83125 24.42625 -18 25 C-20.91086669 25.9702889 -22.90223685 26.16467847 -25.9375 26.1875 C-26.79214844 26.20167969 -27.64679688 26.21585938 -28.52734375 26.23046875 C-31.13909303 25.98703556 -32.75500652 25.3178268 -35 24 C-31.61298834 23.32259767 -28.71682422 23.01415879 -25.25 23.1875 C-18.74120524 23.26245733 -12.95603307 20.66470899 -8.0625 16.5 C-7.0415625 15.2625 -7.0415625 15.2625 -6 14 C-5.49726563 13.39671875 -4.99453125 12.7934375 -4.4765625 12.171875 C-2.81976458 9.73489181 -2.09534898 7.58316774 -1.3125 4.75 C-0.93544922 3.41195312 -0.93544922 3.41195312 -0.55078125 2.046875 C-0.36902344 1.37140625 -0.18726563 0.6959375 0 0 Z " fill="#302020" transform="translate(393,199)"/>
<path d="M0 0 C5.36842105 -0.35789474 5.36842105 -0.35789474 7.875 1.0625 C9 3 9 3 8.8125 6.25 C9.04566283 10.91325664 10.45185637 12.11458812 13.53125 15.3828125 C17.28606388 19.51710225 17.21100571 23.61935427 17 29 C15.91829146 26.85153741 14.85499638 24.69707165 13.81640625 22.52734375 C13.40261719 21.67269531 12.98882812 20.81804687 12.5625 19.9375 C12.15128906 19.08027344 11.74007813 18.22304687 11.31640625 17.33984375 C10.0572809 15.10181382 9.0205703 13.57500864 7 12 C5.5459375 12.0309375 5.5459375 12.0309375 4.0625 12.0625 C1 12 1 12 -1.375 10.125 C-3 8 -3 8 -3 6 C-4.65 5.67 -6.3 5.34 -8 5 C-8 4.67 -8 4.34 -8 4 C-6.02 4 -4.04 4 -2 4 C-1.34 2.68 -0.68 1.36 0 0 Z " fill="#302626" transform="translate(377,166)"/>
<path d="M0 0 C2.3912364 1.27532608 2.7465406 2.59261994 3.875 5 C4.865 5.33 5.855 5.66 6.875 6 C7.23603152 12.3782235 7.23603152 12.3782235 5.75 14.9375 C2.9050175 16.54965675 1.0838071 16.52388687 -2.125 16 C-5.28696359 13.25408425 -6.04191332 11.59199258 -6.625 7.4375 C-6.125 4 -6.125 4 -4.375 1.5 C-2.125 0 -2.125 0 0 0 Z " fill="#F2F2F2" transform="translate(344.125,213)"/>
<path d="M0 0 C3.625 0.25 3.625 0.25 5.33984375 1.37890625 C7.20023706 4.08750319 6.9171745 6.19259036 6.8125 9.4375 C6.78542969 10.52417969 6.75835937 11.61085937 6.73046875 12.73046875 C6.69566406 13.56191406 6.66085937 14.39335937 6.625 15.25 C5.985625 15.064375 5.34625 14.87875 4.6875 14.6875 C3.6665625 14.4709375 3.6665625 14.4709375 2.625 14.25 C2.295 14.58 1.965 14.91 1.625 15.25 C-1.3125 15.4375 -1.3125 15.4375 -4.375 15.25 C-6.375 13.25 -6.375 13.25 -6.625 10.75 C-6.375 8.25 -6.375 8.25 -4.375 6.25 C-0.75 6.125 -0.75 6.125 2.625 6.25 C2.625 5.26 2.625 4.27 2.625 3.25 C0.315 3.91 -1.995 4.57 -4.375 5.25 C-4.375 0.32407407 -4.375 0.32407407 0 0 Z " fill="#0C0C0C" transform="translate(377.375,236.75)"/>
<path d="M0 0 C1.77007714 -0.08114106 3.54122098 -0.13925505 5.3125 -0.1875 C6.29863281 -0.22230469 7.28476562 -0.25710937 8.30078125 -0.29296875 C11 0 11 0 12.8671875 1.3515625 C14 3 14 3 13.8125 5.5625 C13 8 13 8 11 10 C8.3984375 10.1953125 8.3984375 10.1953125 5.375 10.125 C3.87066406 10.09792969 3.87066406 10.09792969 2.3359375 10.0703125 C1.56507813 10.04710937 0.79421875 10.02390625 0 10 C0 6.7 0 3.4 0 0 Z " fill="#E8E8E8" transform="translate(294,218)"/>
<path d="M0 0 C3.16115776 1.36983503 3.9927092 1.9890638 6 5 C7.97747122 5.36297936 7.97747122 5.36297936 10.125 5.1875 C11.40375 5.125625 12.6825 5.06375 14 5 C14.66 3.35 15.32 1.7 16 0 C19.3 0 22.6 0 26 0 C25 4 25 4 21.6875 6.1875 C14.62455699 9.83335115 7.69611411 9.53922282 0 8 C-0.38063221 5.6739143 -0.71269945 3.33944736 -1 1 C-0.67 0.67 -0.34 0.34 0 0 Z " fill="#F4AEA4" transform="translate(358,214)"/>
<path d="M0 0 C1.65 0.33 3.3 0.66 5 1 C5.77842938 4.40562852 6.09978121 7.50765756 6 11 C7.32 11.66 8.64 12.32 10 13 C10.25 15.8125 10.25 15.8125 10 19 C9.01 19.680625 9.01 19.680625 8 20.375 C5.7988687 21.77214425 5.7988687 21.77214425 5.8046875 23.88671875 C5.82789063 24.60472656 5.85109375 25.32273438 5.875 26.0625 C5.936875 28.0115625 5.936875 28.0115625 6 30 C4 32 4 32 2.0546875 32.1953125 C0.03645833 32.13020833 -1.98177083 32.06510417 -4 32 C-3.01 31.67 -2.02 31.34 -1 31 C-1.33 29.68 -1.66 28.36 -2 27 C-1.01 27.33 -0.02 27.66 1 28 C0.896875 27.071875 0.79375 26.14375 0.6875 25.1875 C0.790625 24.135625 0.89375 23.08375 1 22 C2.64821244 20.96986723 4.31503702 19.96885372 6 19 C6.75 16.5 6.75 16.5 6 14 C5.34 13.54625 4.68 13.0925 4 12.625 C3.34 12.08875 2.68 11.5525 2 11 C1.875 7.5625 1.875 7.5625 2 4 C1.11935073 1.64630193 1.11935073 1.64630193 0 0 Z " fill="#F34A58" transform="translate(378,181)"/>
<path d="M0 0 C1.32 0 2.64 0 4 0 C4 5.61 4 11.22 4 17 C6.97 17 9.94 17 13 17 C13 18.32 13 19.64 13 21 C8.71 21 4.42 21 0 21 C0 14.07 0 7.14 0 0 Z " fill="#131313" transform="translate(357,231)"/>
<path d="M0 0 C-0.33 0.66 -0.66 1.32 -1 2 C-2.155 2.2475 -3.31 2.495 -4.5 2.75 C-10.32978339 4.10259363 -15.68352076 7.05348932 -19.421875 11.80859375 C-22.55526366 17.08767248 -23.15309847 21.51471115 -23.1875 27.5625 C-23.20167969 28.69816406 -23.21585937 29.83382812 -23.23046875 31.00390625 C-23.23171839 34.1824443 -23.23171839 34.1824443 -21 37 C-22.98 37.66 -24.96 38.32 -27 39 C-27.495 37.515 -27.495 37.515 -28 36 C-27.505 35.505 -27.505 35.505 -27 35 C-26.86615833 32.66818064 -26.76855037 30.33425062 -26.6875 28 C-26.17280552 18.57061881 -23.96167781 11.97600739 -16.921875 5.5078125 C-11.48752796 1.24428007 -6.89750419 -0.57479202 0 0 Z " fill="#342D2C" transform="translate(366,170)"/>
<path d="M0 0 C2.875 0.75 2.875 0.75 6 2 C6.33 2.680625 6.66 3.36125 7 4.0625 C7.33 4.701875 7.66 5.34125 8 6 C10.90073181 6.67801034 10.90073181 6.67801034 14 7 C17.85710476 8.36133109 19.93337262 10.47907928 22 14 C22.03677157 16.83141109 21.57011307 19.19694407 21 22 C19.68 21.67 18.36 21.34 17 21 C16.67 17.37 16.34 13.74 16 10 C13.710625 10.2475 13.710625 10.2475 11.375 10.5 C8.04479802 10.5283824 6.56017448 10.47921176 4 8.2890625 C0 2.96213942 0 2.96213942 0 0 Z " fill="#E3ACA4" transform="translate(368,170)"/>
<path d="M0 0 C1.258125 -0.04125 2.51625 -0.0825 3.8125 -0.125 C4.52019531 -0.14820313 5.22789062 -0.17140625 5.95703125 -0.1953125 C8 0 8 0 11 2 C11.3125 4.5 11.3125 4.5 11 7 C9 9 9 9 6.8359375 9.1953125 C4.55729167 9.13020833 2.27864583 9.06510417 0 9 C0 6.03 0 3.06 0 0 Z " fill="#F8F8F8" transform="translate(295,203)"/>
<path d="M0 0 C2.5 0.25 2.5 0.25 4.5 2.25 C4.75 5.25 4.75 5.25 4.5 8.25 C2.5 10.25 2.5 10.25 0 10.5 C-2.5 10.25 -2.5 10.25 -4.5 8.25 C-4.75 5.25 -4.75 5.25 -4.5 2.25 C-2.5 0.25 -2.5 0.25 0 0 Z " fill="#37191A" transform="translate(373.5,185.75)"/>
<path d="M0 0 C1.60080151 4.00200378 0.29279692 7.04556236 -1 11 C-3.875 11.125 -3.875 11.125 -7 11 C-9 9 -9 9 -9.25 6.5 C-9 4 -9 4 -7 2 C-3.375 1.875 -3.375 1.875 0 2 C0 1.34 0 0.68 0 0 Z " fill="#474747" transform="translate(380,241)"/>
<path d="M0 0 C1.4540625 0.0309375 1.4540625 0.0309375 2.9375 0.0625 C3.2675 2.3725 3.5975 4.6825 3.9375 7.0625 C0.9375 9.0625 0.9375 9.0625 -1.125 8.8125 C-3.0625 8.0625 -3.0625 8.0625 -5.0625 6.0625 C-4.33395709 0.0884481 -4.33395709 0.0884481 0 0 Z " fill="#39191A" transform="translate(360.0625,192.9375)"/>
<path d="M0 0 C2 2 2 2 3 5 C3.66 4.67 4.32 4.34 5 4 C5 8.62 5 13.24 5 18 C3.68 17.01 2.36 16.02 1 15 C0.01 15.495 0.01 15.495 -1 16 C-0.96744792 13.98177083 -0.93489583 11.96354167 -0.90234375 9.9453125 C-0.87350758 7.91814596 -0.87350758 7.91814596 -2 6 C-1.39421747 3.98072489 -0.73080266 1.97746603 0 0 Z " fill="#C9968F" transform="translate(390,186)"/>
<path d="M0 0 C3.16115776 1.36983503 3.9927092 1.9890638 6 5 C7.97747122 5.36297936 7.97747122 5.36297936 10.125 5.1875 C11.40375 5.125625 12.6825 5.06375 14 5 C14 6.33333333 14 7.66666667 14 9 C9.1666528 9.08333357 4.76307437 8.95261487 0 8 C-0.38063221 5.6739143 -0.71269945 3.33944736 -1 1 C-0.67 0.67 -0.34 0.34 0 0 Z " fill="#DEA79E" transform="translate(358,214)"/>
<path d="M0 0 C2 2 2 2 2 6 C-1.63 6 -5.26 6 -9 6 C-9.33 5.01 -9.66 4.02 -10 3 C-6.70335635 -0.04305568 -4.44038228 -0.48265025 0 0 Z " fill="#DEDEDE" transform="translate(222,213)"/>
<path d="M0 0 C3 0.125 3 0.125 4 1.125 C4.1875 3.5625 4.1875 3.5625 4 6.125 C3.34 6.785 2.68 7.445 2 8.125 C-2.55555556 7.56944444 -2.55555556 7.56944444 -4 6.125 C-4.125 3.625 -4.125 3.625 -4 1.125 C-3 0.125 -3 0.125 0 0 Z " fill="#E25A65" transform="translate(380,167.875)"/>
<path d="M0 0 C4.70588235 0.70588235 4.70588235 0.70588235 6 2 C6.1875 4.4375 6.1875 4.4375 6 7 C5.34 7.66 4.68 8.32 4 9 C1.375 8.625 1.375 8.625 -1 8 C-1.04241723 5.66705225 -1.04092937 3.33297433 -1 1 C-0.67 0.67 -0.34 0.34 0 0 Z " fill="#E9E9E9" transform="translate(393,240)"/>
<path d="M0 0 C1.23556641 0.01740234 1.23556641 0.01740234 2.49609375 0.03515625 C3.32238281 0.04417969 4.14867187 0.05320313 5 0.0625 C5.63808594 0.07410156 6.27617187 0.08570313 6.93359375 0.09765625 C6.62109375 1.97265625 6.62109375 1.97265625 5.93359375 4.09765625 C2.7056782 6.24959995 1.64958566 6.29852068 -2.06640625 6.09765625 C-2.44859392 4.44150968 -2.78035727 2.77308601 -3.06640625 1.09765625 C-2.06640625 0.09765625 -2.06640625 0.09765625 0 0 Z " fill="#EFEFEF" transform="translate(217.06640625,222.90234375)"/>
<path d="M0 0 C-1 3 -1 3 -2.71484375 3.94921875 C-8.94600525 6.01897187 -16.03911482 7.76114315 -22.29296875 4.98046875 C-22.85628906 4.65691406 -23.41960937 4.33335937 -24 4 C-20.58861229 3.31772246 -17.61824729 3.0123146 -14.125 3.125 C-8.96137272 3.22430052 -4.90666814 0 0 0 Z " fill="#514948" transform="translate(382,219)"/>
<path d="M0 0 C0.598125 0.226875 1.19625 0.45375 1.8125 0.6875 C2.4375 2.5 2.4375 2.5 2.8125 4.6875 C1.8225 6.1725 1.8225 6.1725 0.8125 7.6875 C-0.8375 7.3575 -2.4875 7.0275 -4.1875 6.6875 C-4.875 4.875 -4.875 4.875 -5.1875 2.6875 C-3.58493056 0.24147296 -2.95482043 -0.4221172 0 0 Z " fill="#E04A57" transform="translate(391.1875,214.3125)"/>
<path d="M0 0 C0.66 0 1.32 0 2 0 C2.9765625 6.0546875 2.9765625 6.0546875 3 8 C1 10 1 10 -0.9453125 10.1953125 C-2.96354167 10.13020833 -4.98177083 10.06510417 -7 10 C-6.01 9.67 -5.02 9.34 -4 9 C-4.33 7.68 -4.66 6.36 -5 5 C-4.01 5.33 -3.02 5.66 -2 6 C-1.34 4.02 -0.68 2.04 0 0 Z " fill="#D44450" transform="translate(381,203)"/>
<path d="M0 0 C2.31 0 4.62 0 7 0 C7 1.98 7 3.96 7 6 C4.69 6 2.38 6 0 6 C0 4.02 0 2.04 0 0 Z " fill="#191919" transform="translate(320,197)"/>
<path d="M0 0 C1.65 0.33 3.3 0.66 5 1 C6.125 4.75 6.125 4.75 5 7 C3.35 7 1.7 7 0 7 C-1.125 2.25 -1.125 2.25 0 0 Z " fill="#5B3433" transform="translate(365,202)"/>
<path d="M0 0 C0.33 0 0.66 0 1 0 C1.07347656 0.92232422 1.07347656 0.92232422 1.1484375 1.86328125 C1.22320312 2.67152344 1.29796875 3.47976562 1.375 4.3125 C1.44460938 5.11300781 1.51421875 5.91351563 1.5859375 6.73828125 C1.89564426 9.27224441 1.89564426 9.27224441 4 12 C2.02 12.66 0.04 13.32 -2 14 C-2.33 13.01 -2.66 12.02 -3 11 C-2.33333333 9.66666667 -1.66666667 8.33333333 -1 7 C-0.61250787 4.67504723 -0.27017161 2.34148732 0 0 Z " fill="#593435" transform="translate(341,195)"/>
<path d="M0 0 C-0.33 0.66 -0.66 1.32 -1 2 C-2.97313362 2.49328341 -4.94799933 2.98142114 -6.93359375 3.421875 C-9.21977537 3.96328598 -9.21977537 3.96328598 -11.8125 5.6875 C-12.534375 6.120625 -13.25625 6.55375 -14 7 C-14.99 6.67 -15.98 6.34 -17 6 C-15.70903219 5.18639005 -14.41720125 4.37414954 -13.125 3.5625 C-12.04605469 2.88380859 -12.04605469 2.88380859 -10.9453125 2.19140625 C-7.12789854 -0.14656816 -4.48503672 -0.08305624 0 0 Z " fill="#362F2E" transform="translate(366,170)"/>
<path d="M0 0 C0.66 0.33 1.32 0.66 2 1 C2 1.66 2 2.32 2 3 C2.66 3 3.32 3 4 3 C3.67 5.31 3.34 7.62 3 10 C1.68 9.67 0.36 9.34 -1 9 C-0.67 6.03 -0.34 3.06 0 0 Z " fill="#F7B9B0" transform="translate(386,182)"/>
<path d="M0 0 C2.0625 0.4375 2.0625 0.4375 4 1 C3.67 2.65 3.34 4.3 3 6 C1.68 5.67 0.36 5.34 -1 5 C-1 1 -1 1 0 0 Z " fill="#EC978C" transform="translate(372,188)"/>
<path d="M0 0 C3.83953399 1.27984466 5.65316744 3.81501296 8 7 C7.01 7.495 7.01 7.495 6 8 C5.67 7.34 5.34 6.68 5 6 C4.34 7.32 3.68 8.64 3 10 C2.87625 8.329375 2.87625 8.329375 2.75 6.625 C2.42126213 2.94246056 2.42126213 2.94246056 -0.0625 1.5625 C-0.701875 1.376875 -1.34125 1.19125 -2 1 C-1.34 0.67 -0.68 0.34 0 0 Z " fill="#D89F97" transform="translate(382,177)"/>
<path d="M0 0 C2.475 0.495 2.475 0.495 5 1 C5.625 3.3125 5.625 3.3125 6 6 C5.01 7.485 5.01 7.485 4 9 C2.68 6.03 1.36 3.06 0 0 Z " fill="#E64452" transform="translate(378,181)"/>
<path d="M0 0 C0.66 0.99 1.32 1.98 2 3 C0 5 0 5 -2.1640625 5.1953125 C-3.38222656 5.16050781 -3.38222656 5.16050781 -4.625 5.125 C-5.44226563 5.10695312 -6.25953125 5.08890625 -7.1015625 5.0703125 C-7.72804688 5.04710937 -8.35453125 5.02390625 -9 5 C-9 4.01 -9 3.02 -9 2 C-6.03 2.33 -3.06 2.66 0 3 C0 2.01 0 1.02 0 0 Z " fill="#422627" transform="translate(361,177)"/>
<path d="M0 0 C2.31 0.33 4.62 0.66 7 1 C4.06171403 3.50298434 1.82097239 4.46930939 -2 5 C-1.34 3.35 -0.68 1.7 0 0 Z " fill="#D9A59D" transform="translate(374,214)"/>
<path d="M0 0 C0.99 0.33 1.98 0.66 3 1 C2.67 2.65 2.34 4.3 2 6 C0.68 5.67 -0.64 5.34 -2 5 C-1.125 1.125 -1.125 1.125 0 0 Z " fill="#E49085" transform="translate(359,194)"/>
<path d="M0 0 C0.4125 0.639375 0.825 1.27875 1.25 1.9375 C3.17810487 4.20990931 4.11424181 4.60196439 7 5 C7 5.66 7 6.32 7 7 C4.125 6.8125 4.125 6.8125 1 6 C-0.375 3.4375 -0.375 3.4375 -1 1 C-0.67 0.67 -0.34 0.34 0 0 Z " fill="#3D2625" transform="translate(375,171)"/>
<path d="M0 0 C1.32 0.33 2.64 0.66 4 1 C4.125 3.375 4.125 3.375 4 6 C3.34 6.66 2.68 7.32 2 8 C-0.125 7.625 -0.125 7.625 -2 7 C-1.01 6.67 -0.02 6.34 1 6 C0.67 4.02 0.34 2.04 0 0 Z " fill="#E34553" transform="translate(380,168)"/>
<path d="M0 0 C-0.33 0.99 -0.66 1.98 -1 3 C-4.5625 4.1875 -4.5625 4.1875 -8 5 C-8.66 4.34 -9.32 3.68 -10 3 C-8.70990357 2.49596232 -7.41786211 1.99690074 -6.125 1.5 C-5.04605469 1.08234375 -5.04605469 1.08234375 -3.9453125 0.65625 C-2 0 -2 0 0 0 Z " fill="#413634" transform="translate(382,219)"/>
<path d="M0 0 C0.66 0.33 1.32 0.66 2 1 C-0.97 4.96 -0.97 4.96 -4 9 C-4.33 8.01 -4.66 7.02 -5 6 C-3.59554165 3.7363436 -1.8032087 1.9791315 0 0 Z " fill="#292424" transform="translate(348,177)"/>
<path d="M0 0 C2.3431213 0.25561323 4.67843403 0.59270772 7 1 C7.33 1.66 7.66 2.32 8 3 C4.62182575 3.84454356 2.32534757 4.10844919 -1 3 C-0.67 2.01 -0.34 1.02 0 0 Z " fill="#E04A56" transform="translate(369,194)"/>
<path d="M0 0 C1.98 0 3.96 0 6 0 C6.33 1.98 6.66 3.96 7 6 C6.01 4.68 5.02 3.36 4 2 C2.68 2.33 1.36 2.66 0 3 C0 2.01 0 1.02 0 0 Z " fill="#261313" transform="translate(357,193)"/>
</svg>
